<?xml version="1.0" encoding="UTF-8"?>
<svg id="Layer_1" xmlns="http://www.w3.org/2000/svg" version="1.1" viewBox="0 0 1900 1900">
  <!-- Generator: Adobe Illustrator 29.8.2, SVG Export Plug-In . SVG Version: 2.1.1 Build 3)  -->
  <defs>
    <style>
      .st0 {
        fill: #fff;
      }
    </style>
  </defs>
  <path class="st0" d="M1900,0v1900H0V0h1900ZM925.79,95.29C439.3,110.08,62.59,524.89,97.01,1011.49c30.31,428.54,378.41,769.98,807.45,792.55,470.94,24.78,874.82-337.88,899.58-808.5,26.19-497.64-379.46-915.41-878.25-900.25Z"/>
  <path d="M925.79,95.29c498.78-15.16,904.43,402.61,878.25,900.25-24.76,470.62-428.64,833.28-899.58,808.5-429.04-22.58-777.14-364.01-807.45-792.55C62.59,524.89,439.3,110.08,925.79,95.29ZM777.5,490h-165.5v661.5l1.5,1.5h149l1.5-1.5v-394.5l3.01.69,141.46,285.34c.78,1,1.87.89,2.98,1.02,23.65,2.82,52.85-2.27,77.11,0l2.95-1.05,141.48-285.32,3.01-.69v396h150.5l1.5-1.5V490h-165l-173.49,345.02-172.01-345.02ZM610,1257v153.5l2.95,2.05,671.35.21c3.55-.44,3.48-3.22,3.74-6.21-1.46-44.72,1.78-90.49.01-135.09-.1-2.51-.67-14.07-1.99-15.02l-663.6-.47-12.46,1.03Z"/>
  <path class="st0" d="M777.5,490l172.01,345.02,173.49-345.02h165v661.5l-1.5,1.5h-150.5v-396l-3.01.69-141.48,285.32-2.95,1.05c-24.26-2.27-53.46,2.82-77.11,0-1.1-.13-2.19-.02-2.98-1.02l-141.46-285.34-3.01-.69v394.5l-1.5,1.5h-149l-1.5-1.5V490h165.5Z"/>
  <path class="st0" d="M610,1257l12.46-1.03,663.6.47c1.31.96,1.89,12.52,1.99,15.02,1.77,44.59-1.47,90.37-.01,135.09-.25,2.99-.19,5.77-3.74,6.21l-671.35-.21-2.95-2.05v-153.5Z"/>
</svg>